<?xml version="1.0" standalone="yes"?>
<!DOCTYPE svg PUBLIC "-//W3C//DTD SVG 1.1//EN"
 "http://www.w3.org/Graphics/SVG/1.1/DTD/svg11.dtd">
<svg xmlns="http://www.w3.org/2000/svg" version="1.1"
  width="100%" height="100%" viewBox="0 0 1024 768"
  style="fill: none; font-family: Helvetica;
 font: Helvetica;
">

<!-- Creator: NGspice -->

<rect x="0" y="0" width="1024" height="768" fill="black" stroke="none"/>
<text stroke="none" fill="white" font-size="16" x="358" y="752">
frequency
</text>
<text stroke="none" fill="white" font-size="16" x="10" y="16">
ac1: ** sch_path: /foss/designs/fvf-chipathon-2024/xschem/fvf_tb_loop.sch
</text>
<path stroke="white" d="M70 720l0 -671"/>
<text stroke="none" fill="white" font-size="16" x="65" y="728">
1
</text>
<path stroke="white" stroke-dasharray="1,2" d="M103 720l0 -671M122 720l0 -671M136 720l0 -671M146 720l0 -671M155 720l0 -671M162 720l0 -671M169 720l0 -671M174 720l0 -671"/>
<path stroke="white" d="M180 720l0 -671"/>
<text stroke="none" fill="white" font-size="16" x="170" y="728">
10
</text>
<path stroke="white" stroke-dasharray="1,2" d="M213 720l0 -671M232 720l0 -671M246 720l0 -671M256 720l0 -671M265 720l0 -671M272 720l0 -671M279 720l0 -671M284 720l0 -671"/>
<path stroke="white" d="M290 720l0 -671"/>
<text stroke="none" fill="white" font-size="16" x="275" y="728">
100
</text>
<path stroke="white" stroke-dasharray="1,2" d="M323 720l0 -671M342 720l0 -671M356 720l0 -671M366 720l0 -671M375 720l0 -671M382 720l0 -671M389 720l0 -671M394 720l0 -671"/>
<path stroke="white" d="M400 720l0 -671"/>
<text stroke="none" fill="white" font-size="16" x="380" y="728">
10^3
</text>
<path stroke="white" stroke-dasharray="1,2" d="M433 720l0 -671M452 720l0 -671M466 720l0 -671M476 720l0 -671M485 720l0 -671M492 720l0 -671M499 720l0 -671M504 720l0 -671"/>
<path stroke="white" d="M510 720l0 -671"/>
<text stroke="none" fill="white" font-size="16" x="490" y="728">
10^4
</text>
<path stroke="white" stroke-dasharray="1,2" d="M543 720l0 -671M562 720l0 -671M576 720l0 -671M586 720l0 -671M595 720l0 -671M602 720l0 -671M609 720l0 -671M614 720l0 -671"/>
<path stroke="white" d="M620 720l0 -671"/>
<text stroke="none" fill="white" font-size="16" x="600" y="728">
10^5
</text>
<path stroke="white" stroke-dasharray="1,2" d="M653 720l0 -671M672 720l0 -671M686 720l0 -671M696 720l0 -671M705 720l0 -671M712 720l0 -671M719 720l0 -671M724 720l0 -671"/>
<path stroke="white" d="M730 720l0 -671"/>
<text stroke="none" fill="white" font-size="16" x="710" y="728">
10^6
</text>
<path stroke="white" stroke-dasharray="1,2" d="M763 720l0 -671M782 720l0 -671M796 720l0 -671M806 720l0 -671M815 720l0 -671M822 720l0 -671M829 720l0 -671M834 720l0 -671"/>
<path stroke="white" d="M840 720l0 -671"/>
<text stroke="none" fill="white" font-size="16" x="820" y="728">
10^7
</text>
<path stroke="white" stroke-dasharray="1,2" d="M873 720l0 -671M892 720l0 -671M906 720l0 -671M916 720l0 -671M925 720l0 -671M932 720l0 -671M939 720l0 -671M944 720l0 -671"/>
<path stroke="white" d="M950 720l0 -671"/>
<text stroke="none" fill="white" font-size="16" x="930" y="728">
10^8
</text>
<text stroke="none" fill="white" font-size="16" x="614" y="752">
Hz
</text>
<path stroke="white" stroke-dasharray="1,2" d="M70 720l880 0"/>
<text stroke="none" fill="white" font-size="16" x="18" y="728">
-50.0
</text>
<path stroke="white" d="M70 659l880 0"/>
<text stroke="none" fill="white" font-size="16" x="38" y="667">
0.0
</text>
<path stroke="white" stroke-dasharray="1,2" d="M70 598l880 0"/>
<text stroke="none" fill="white" font-size="16" x="28" y="606">
50.0
</text>
<path stroke="white" stroke-dasharray="1,2" d="M70 537l880 0"/>
<text stroke="none" fill="white" font-size="16" x="18" y="545">
100.0
</text>
<path stroke="white" stroke-dasharray="1,2" d="M70 476l880 0"/>
<text stroke="none" fill="white" font-size="16" x="18" y="484">
150.0
</text>
<path stroke="white" stroke-dasharray="1,2" d="M70 415l880 0"/>
<text stroke="none" fill="white" font-size="16" x="18" y="423">
200.0
</text>
<path stroke="white" stroke-dasharray="1,2" d="M70 354l880 0"/>
<text stroke="none" fill="white" font-size="16" x="18" y="362">
250.0
</text>
<path stroke="white" stroke-dasharray="1,2" d="M70 293l880 0"/>
<text stroke="none" fill="white" font-size="16" x="18" y="301">
300.0
</text>
<path stroke="white" stroke-dasharray="1,2" d="M70 232l880 0"/>
<text stroke="none" fill="white" font-size="16" x="18" y="240">
350.0
</text>
<path stroke="white" stroke-dasharray="1,2" d="M70 171l880 0"/>
<text stroke="none" fill="white" font-size="16" x="18" y="179">
400.0
</text>
<path stroke="white" stroke-dasharray="1,2" d="M70 110l880 0"/>
<text stroke="none" fill="white" font-size="16" x="18" y="118">
450.0
</text>
<path stroke="white" stroke-dasharray="1,2" d="M70 49l880 0"/>
<text stroke="none" fill="white" font-size="16" x="18" y="57">
500.0
</text>
<text stroke="none" fill="white" font-size="16" x="10" y="32">
mV
</text>
<path stroke="red" d="M440 23l44 0"/>
<text stroke="none" fill="white" font-size="16" x="494" y="32">
v(vout)
</text>
<path stroke="red" d="M70 659l429 0 5 -1 11 0 6 -1 5 0 6 -1 5 -1 6 -1 5 -2 6 -2 5 -2 6 -3 5 -3 6 -5 5 -5 6 -7 5 -8 6 -10 5 -12 6 -15 5 -17 6 -20 5 -24 6 -26 5 -29 6 -32 5 -33 6 -35 5 -35 6 -34 5 -32 6 -31 5 -27 6 -25 5 -21 6 -19 5 -15 6 -14 5 -11"/>
<path stroke="red" d="M713 100l6 -9 5 -7 11 -11 6 -4 5 -3 6 -2 5 -2 6 -2 5 -1 6 -1 5 -1 6 -1 5 0 6 -1 16 0 6 -1 132 0"/>
</svg>
