<?xml version="1.0" standalone="yes"?>
<!DOCTYPE svg PUBLIC "-//W3C//DTD SVG 1.1//EN"
 "http://www.w3.org/Graphics/SVG/1.1/DTD/svg11.dtd">
<svg xmlns="http://www.w3.org/2000/svg" version="1.1"
  width="100%" height="100%" viewBox="0 0 1024 768"
  style="fill: none; font-family: Helvetica;
 font: Helvetica;
">

<!-- Creator: NGspice -->

<rect x="0" y="0" width="1024" height="768" fill="black" stroke="none"/>
<text stroke="none" fill="white" font-size="16" x="358" y="752">
frequency
</text>
<text stroke="none" fill="white" font-size="16" x="10" y="16">
noise1: ** sch_path: /foss/designs/fvf-chipathon-2024/xschem/fvf_tb_noise.sch
</text>
<path stroke="white" d="M50 720l0 -666"/>
<text stroke="none" fill="white" font-size="16" x="30" y="728">
10^3
</text>
<path stroke="white" stroke-dasharray="1,2" d="M84 720l0 -666M104 720l0 -666M119 720l0 -666M130 720l0 -666M139 720l0 -666M147 720l0 -666M153 720l0 -666M159 720l0 -666"/>
<path stroke="white" d="M165 720l0 -666"/>
<text stroke="none" fill="white" font-size="16" x="145" y="728">
10^4
</text>
<path stroke="white" stroke-dasharray="1,2" d="M199 720l0 -666M219 720l0 -666M234 720l0 -666M245 720l0 -666M254 720l0 -666M262 720l0 -666M268 720l0 -666M274 720l0 -666"/>
<path stroke="white" d="M280 720l0 -666"/>
<text stroke="none" fill="white" font-size="16" x="260" y="728">
10^5
</text>
<path stroke="white" stroke-dasharray="1,2" d="M314 720l0 -666M334 720l0 -666M349 720l0 -666M360 720l0 -666M369 720l0 -666M377 720l0 -666M383 720l0 -666M389 720l0 -666"/>
<path stroke="white" d="M395 720l0 -666"/>
<text stroke="none" fill="white" font-size="16" x="375" y="728">
10^6
</text>
<path stroke="white" stroke-dasharray="1,2" d="M429 720l0 -666M449 720l0 -666M464 720l0 -666M475 720l0 -666M484 720l0 -666M492 720l0 -666M498 720l0 -666M504 720l0 -666"/>
<path stroke="white" d="M510 720l0 -666"/>
<text stroke="none" fill="white" font-size="16" x="490" y="728">
10^7
</text>
<path stroke="white" stroke-dasharray="1,2" d="M544 720l0 -666M564 720l0 -666M579 720l0 -666M590 720l0 -666M599 720l0 -666M607 720l0 -666M613 720l0 -666M619 720l0 -666"/>
<path stroke="white" d="M625 720l0 -666"/>
<text stroke="none" fill="white" font-size="16" x="605" y="728">
10^8
</text>
<path stroke="white" stroke-dasharray="1,2" d="M659 720l0 -666M679 720l0 -666M694 720l0 -666M705 720l0 -666M714 720l0 -666M722 720l0 -666M728 720l0 -666M734 720l0 -666"/>
<path stroke="white" d="M740 720l0 -666"/>
<text stroke="none" fill="white" font-size="16" x="720" y="728">
10^9
</text>
<path stroke="white" stroke-dasharray="1,2" d="M774 720l0 -666M794 720l0 -666M809 720l0 -666M820 720l0 -666M829 720l0 -666M837 720l0 -666M843 720l0 -666M849 720l0 -666"/>
<path stroke="white" d="M855 720l0 -666"/>
<text stroke="none" fill="white" font-size="16" x="830" y="728">
10^10
</text>
<path stroke="white" stroke-dasharray="1,2" d="M889 720l0 -666M909 720l0 -666M924 720l0 -666M935 720l0 -666M944 720l0 -666M952 720l0 -666M958 720l0 -666M964 720l0 -666"/>
<path stroke="white" d="M970 720l0 -666"/>
<text stroke="none" fill="white" font-size="16" x="945" y="728">
10^11
</text>
<text stroke="none" fill="white" font-size="16" x="614" y="752">
Hz
</text>
<path stroke="white" d="M50 720l920 0"/>
<text stroke="none" fill="white" font-size="16" x="18" y="728">
0.0
</text>
<path stroke="white" stroke-dasharray="1,2" d="M50 646l920 0"/>
<text stroke="none" fill="white" font-size="16" x="18" y="654">
0.5
</text>
<path stroke="white" stroke-dasharray="1,2" d="M50 572l920 0"/>
<text stroke="none" fill="white" font-size="16" x="18" y="580">
1.0
</text>
<path stroke="white" stroke-dasharray="1,2" d="M50 498l920 0"/>
<text stroke="none" fill="white" font-size="16" x="18" y="506">
1.5
</text>
<path stroke="white" stroke-dasharray="1,2" d="M50 424l920 0"/>
<text stroke="none" fill="white" font-size="16" x="18" y="432">
2.0
</text>
<path stroke="white" stroke-dasharray="1,2" d="M50 350l920 0"/>
<text stroke="none" fill="white" font-size="16" x="18" y="358">
2.5
</text>
<path stroke="white" stroke-dasharray="1,2" d="M50 276l920 0"/>
<text stroke="none" fill="white" font-size="16" x="18" y="284">
3.0
</text>
<path stroke="white" stroke-dasharray="1,2" d="M50 202l920 0"/>
<text stroke="none" fill="white" font-size="16" x="18" y="210">
3.5
</text>
<path stroke="white" stroke-dasharray="1,2" d="M50 128l920 0"/>
<text stroke="none" fill="white" font-size="16" x="18" y="136">
4.0
</text>
<path stroke="white" stroke-dasharray="1,2" d="M50 54l920 0"/>
<text stroke="none" fill="white" font-size="16" x="18" y="62">
4.5
</text>
<text stroke="none" fill="white" font-size="16" x="10" y="32">
uV/sqrt(Hz)
</text>
<path stroke="red" d="M460 23l46 0"/>
<text stroke="none" fill="white" font-size="16" x="516" y="32">
v(inoise_spectrum)
</text>
<path stroke="red" d="M50 113l6 -2 6 -3 5 -3 12 -6 5 -3 6 -3 6 -1 6 0 5 3 6 6 6 10 6 13 5 18 6 22 6 26 6 29 5 32 6 32 6 34 6 32 5 32 6 31 6 29 6 27 5 25 6 23 6 21 6 19 5 17 6 15 6 14 6 13 5 11 6 10 6 9 6 8 5 8 12 12 6 5 5 4 12 8 6 3 5 3 6 3 12 4"/>
<path stroke="red" d="M332 703l5 2 6 2 12 2 5 2 6 1 6 0 6 1 5 1 6 1 6 0 6 1 5 0 6 1 12 0 5 1 23 0 6 1 46 0 6 1 460 0"/>
</svg>
