<?xml version="1.0" standalone="yes"?>
<!DOCTYPE svg PUBLIC "-//W3C//DTD SVG 1.1//EN"
 "http://www.w3.org/Graphics/SVG/1.1/DTD/svg11.dtd">
<svg xmlns="http://www.w3.org/2000/svg" version="1.1"
  width="100%" height="100%" viewBox="0 0 1024 768"
  style="fill: none; font-family: Helvetica;
 font: Helvetica;
">

<!-- Creator: NGspice -->

<rect x="0" y="0" width="1024" height="768" fill="black" stroke="none"/>
<text stroke="none" fill="white" font-size="16" x="358" y="752">
frequency
</text>
<text stroke="none" fill="white" font-size="16" x="10" y="16">
ac1: ** sch_path: /foss/designs/fvf-chipathon-2024/xschem/fvf_tb.sch
</text>
<path stroke="white" d="M60 720l0 -672"/>
<text stroke="none" fill="white" font-size="16" x="55" y="728">
1
</text>
<path stroke="white" stroke-dasharray="1,2" d="M94 720l0 -672M113 720l0 -672M128 720l0 -672M138 720l0 -672M147 720l0 -672M155 720l0 -672M162 720l0 -672M167 720l0 -672"/>
<path stroke="white" d="M173 720l0 -672"/>
<text stroke="none" fill="white" font-size="16" x="163" y="728">
10
</text>
<path stroke="white" stroke-dasharray="1,2" d="M207 720l0 -672M226 720l0 -672M241 720l0 -672M251 720l0 -672M260 720l0 -672M268 720l0 -672M275 720l0 -672M280 720l0 -672"/>
<path stroke="white" d="M286 720l0 -672"/>
<text stroke="none" fill="white" font-size="16" x="271" y="728">
100
</text>
<path stroke="white" stroke-dasharray="1,2" d="M320 720l0 -672M339 720l0 -672M354 720l0 -672M364 720l0 -672M373 720l0 -672M381 720l0 -672M388 720l0 -672M393 720l0 -672"/>
<path stroke="white" d="M399 720l0 -672"/>
<text stroke="none" fill="white" font-size="16" x="379" y="728">
10^3
</text>
<path stroke="white" stroke-dasharray="1,2" d="M433 720l0 -672M452 720l0 -672M467 720l0 -672M477 720l0 -672M486 720l0 -672M494 720l0 -672M501 720l0 -672M506 720l0 -672"/>
<path stroke="white" d="M512 720l0 -672"/>
<text stroke="none" fill="white" font-size="16" x="492" y="728">
10^4
</text>
<path stroke="white" stroke-dasharray="1,2" d="M546 720l0 -672M565 720l0 -672M580 720l0 -672M590 720l0 -672M599 720l0 -672M607 720l0 -672M614 720l0 -672M619 720l0 -672"/>
<path stroke="white" d="M625 720l0 -672"/>
<text stroke="none" fill="white" font-size="16" x="605" y="728">
10^5
</text>
<path stroke="white" stroke-dasharray="1,2" d="M659 720l0 -672M678 720l0 -672M693 720l0 -672M703 720l0 -672M712 720l0 -672M720 720l0 -672M727 720l0 -672M732 720l0 -672"/>
<path stroke="white" d="M738 720l0 -672"/>
<text stroke="none" fill="white" font-size="16" x="718" y="728">
10^6
</text>
<path stroke="white" stroke-dasharray="1,2" d="M772 720l0 -672M791 720l0 -672M806 720l0 -672M816 720l0 -672M825 720l0 -672M833 720l0 -672M840 720l0 -672M845 720l0 -672"/>
<path stroke="white" d="M851 720l0 -672"/>
<text stroke="none" fill="white" font-size="16" x="831" y="728">
10^7
</text>
<path stroke="white" stroke-dasharray="1,2" d="M885 720l0 -672M904 720l0 -672M919 720l0 -672M929 720l0 -672M938 720l0 -672M946 720l0 -672M953 720l0 -672M958 720l0 -672"/>
<path stroke="white" d="M964 720l0 -672"/>
<text stroke="none" fill="white" font-size="16" x="944" y="728">
10^8
</text>
<text stroke="none" fill="white" font-size="16" x="614" y="752">
Hz
</text>
<path stroke="white" stroke-dasharray="1,2" d="M60 720l904 0"/>
<text stroke="none" fill="white" font-size="16" x="8" y="728">
-35.0
</text>
<path stroke="white" stroke-dasharray="1,2" d="M60 636l904 0"/>
<text stroke="none" fill="white" font-size="16" x="8" y="644">
-30.0
</text>
<path stroke="white" stroke-dasharray="1,2" d="M60 552l904 0"/>
<text stroke="none" fill="white" font-size="16" x="8" y="560">
-25.0
</text>
<path stroke="white" stroke-dasharray="1,2" d="M60 468l904 0"/>
<text stroke="none" fill="white" font-size="16" x="8" y="476">
-20.0
</text>
<path stroke="white" stroke-dasharray="1,2" d="M60 384l904 0"/>
<text stroke="none" fill="white" font-size="16" x="8" y="392">
-15.0
</text>
<path stroke="white" stroke-dasharray="1,2" d="M60 300l904 0"/>
<text stroke="none" fill="white" font-size="16" x="8" y="308">
-10.0
</text>
<path stroke="white" stroke-dasharray="1,2" d="M60 216l904 0"/>
<text stroke="none" fill="white" font-size="16" x="18" y="224">
-5.0
</text>
<path stroke="white" d="M60 132l904 0"/>
<text stroke="none" fill="white" font-size="16" x="28" y="140">
0.0
</text>
<path stroke="white" stroke-dasharray="1,2" d="M60 48l904 0"/>
<text stroke="none" fill="white" font-size="16" x="28" y="56">
5.0
</text>
<text stroke="none" fill="white" font-size="16" x="10" y="32">
     
</text>
<path stroke="red" d="M452 23l45 0"/>
<text stroke="none" fill="white" font-size="16" x="507" y="32">
180*cph(v(vout))/pi
</text>
<path stroke="red" d="M60 132l6 1 45 0 5 1 23 0 6 1 11 0 6 1 5 0 6 1 6 0 5 1 12 2 5 1 12 2 5 1 6 2 5 1 12 4 5 2 12 6 5 3 12 8 5 5 6 5 6 6 5 6 12 16 5 9 6 10 6 11 5 13 6 14 5 16 6 17 6 19 5 21 6 23 6 24 5 27 6 28 6 30 5 30 6 32 6 31 5 30 6 28"/>
<path stroke="red" d="M416 621l6 26 5 22 6 17 6 12 5 7 6 0 5 -6 6 -12 6 -18 5 -23 6 -28 6 -30 5 -33 12 -68 5 -33 6 -32 6 -30 5 -27 6 -25 6 -23 5 -20 6 -18 6 -16 5 -15 6 -13 5 -11 6 -10 6 -9 5 -8 6 -7 6 -6 5 -6 12 -10 5 -4 12 -6 5 -3 6 -3 6 -2"/>
<path stroke="red" d="M648 150l5 -2 6 -2 6 -1 5 -1 6 -2 5 -1 12 -2 5 -1 6 0 6 -1 5 0 6 -1 6 0 5 -1 12 0 5 -1 17 0 6 -1 51 0 5 -1 136 0"/>
</svg>
